/* XPM */
static char *magick[] = {
/* columns rows colors chars-per-pixel */
"16 16 256 2",
"   c #858590",
".  c #8c8c93",
"X  c #61617f",
"o  c #9b9b9d",
"O  c #afafd7",
"+  c #d1d1e8",
"@  c #99999c",
"#  c #a1a1ae",
"$  c #b6b6db",
"%  c #bbbbdb",
"&  c #ababd5",
"*  c #ababb6",
"=  c #a6a6d2",
"-  c #737399",
";  c #c5c5e2",
":  c #a8a8d4",
">  c #9f9fab",
",  c #696983",
"<  c #9191ad",
"1  c #b4b4d9",
"2  c #b0b0bd",
"3  c #adadd6",
"4  c #a3a3cf",
"5  c #a8a8b6",
"6  c #656587",
"7  c #8484aa",
"8  c #9b9bcd",
"9  c #b7b7da",
"0  c #aaaab0",
"q  c #d4d4ea",
"w  c #94949a",
"e  c #666681",
"r  c #b3b3d9",
"t  c #8787b4",
"y  c #a7a7c9",
"u  c #6c6c85",
"i  c #959597",
"p  c #c8c8e3",
"a  c #a5a5b5",
"s  c #9999ca",
"d  c #acacd6",
"f  c #8d8dbc",
"g  c #9e9ea4",
"h  c #9f9fa9",
"j  c #cdcde6",
"k  c #aaaad2",
"l  c #acacd5",
"z  c #a3a3b7",
"x  c #a1a1b0",
"c  c #c3c3d3",
"v  c #cacae5",
"b  c #9e9ea0",
"n  c #9a9a9c",
"m  c #b7b7be",
"M  c #99999a",
"N  c #d7d7e4",
"B  c #dcdced",
"V  c #5f5f7e",
"C  c #8e8eb2",
"Z  c #83839f",
"A  c #93939e",
"S  c #a1a1ad",
"D  c #727298",
"F  c #9d9dcf",
"G  c #656582",
"H  c #9e9ea9",
"J  c #7b7ba1",
"K  c #c0c0df",
"L  c #7e7e90",
"P  c #8181aa",
"I  c #9d9dbb",
"U  c #7d7d8c",
"Y  c #dbdbed",
"T  c #d8d8ec",
"R  c #707086",
"E  c #7878a0",
"W  c #a0a0cf",
"Q  c #9d9db0",
"!  c #737387",
"~  c #b7b7db",
"^  c #bcbcde",
"/  c #858596",
"(  c #bebedf",
")  c #a0a0a5",
"_  c #878797",
"`  c #9f9fac",
"'  c #69698c",
"]  c #98989c",
"[  c #9e9ecf",
"{  c #93939c",
"}  c #969698",
"|  c #b2b2d9",
" . c #8686b2",
".. c #8787b3",
"X. c #c3c3d2",
"o. c #6e6e85",
"O. c #949497",
"+. c #9d9da4",
"@. c #60607f",
"#. c #cdcde2",
"$. c #bbbbda",
"%. c #babadd",
"&. c #a9a9b3",
"*. c #9696c3",
"=. c #b4b4bb",
"-. c #7a7a99",
";. c #9191c2",
":. c #9595c7",
">. c #d6d6eb",
",. c #767688",
"<. c #9797af",
"1. c #9999a9",
"2. c #616183",
"3. c #b5b5da",
"4. c #8888b6",
"5. c #9797cb",
"6. c #a3a3b5",
"7. c #a4a4b8",
"8. c #a7a7be",
"9. c #7a7aa5",
"0. c #9a9a9d",
"q. c #75759c",
"w. c #c0c0e0",
"e. c #9f9fad",
"r. c #6b6b8f",
"t. c #9b9bbf",
"y. c #9d9da8",
"u. c #bcbcc5",
"i. c Gray60",
"p. c Gray0",
"a. c Gray0",
"s. c Gray0",
"d. c Gray0",
"f. c Gray0",
"g. c Gray0",
"h. c Gray0",
"j. c Gray0",
"k. c Gray0",
"l. c Gray0",
"z. c Gray0",
"x. c Gray0",
"c. c Gray0",
"v. c Gray0",
"b. c Gray0",
"n. c Gray0",
"m. c Gray0",
"M. c Gray0",
"N. c Gray0",
"B. c Gray0",
"V. c Gray0",
"C. c Gray0",
"Z. c Gray0",
"A. c Gray0",
"S. c Gray0",
"D. c Gray0",
"F. c Gray0",
"G. c Gray0",
"H. c Gray0",
"J. c Gray0",
"K. c Gray0",
"L. c Gray0",
"P. c Gray0",
"I. c Gray0",
"U. c Gray0",
"Y. c Gray0",
"T. c Gray0",
"R. c Gray0",
"E. c Gray0",
"W. c Gray0",
"Q. c Gray0",
"!. c Gray0",
"~. c Gray0",
"^. c Gray0",
"/. c Gray0",
"(. c Gray0",
"). c Gray0",
"_. c Gray0",
"`. c Gray0",
"'. c Gray0",
"]. c Gray0",
"[. c Gray0",
"{. c Gray0",
"}. c Gray0",
"|. c Gray0",
" X c Gray0",
".X c Gray0",
"XX c Gray0",
"oX c Gray0",
"OX c Gray0",
"+X c Gray0",
"@X c Gray0",
"#X c Gray0",
"$X c Gray0",
"%X c Gray0",
"&X c Gray0",
"*X c Gray0",
"=X c Gray0",
"-X c Gray0",
";X c Gray0",
":X c Gray0",
">X c Gray0",
",X c Gray0",
"<X c Gray0",
"1X c Gray0",
"2X c Gray0",
"3X c Gray0",
"4X c Gray0",
"5X c Gray0",
"6X c Gray0",
"7X c Gray0",
"8X c Gray0",
"9X c Gray0",
"0X c Gray0",
"qX c Gray0",
"wX c Gray0",
"eX c Gray0",
"rX c Gray0",
"tX c Gray0",
"yX c Gray0",
"uX c Gray0",
"iX c Gray0",
"pX c Gray0",
"aX c Gray0",
"sX c Gray0",
"dX c Gray0",
"fX c Gray0",
"gX c Gray0",
"hX c Gray0",
"jX c Gray0",
"kX c Gray0",
"lX c Gray0",
"zX c Gray0",
"xX c Gray0",
"cX c Gray0",
"vX c Gray0",
"bX c Gray0",
"nX c Gray0",
"mX c Gray0",
"MX c Gray0",
"NX c Gray0",
"BX c Gray0",
"VX c Gray0",
"CX c Gray0",
"ZX c Gray0",
"AX c Gray0",
"SX c Gray0",
"DX c Gray0",
"FX c Gray0",
"GX c Gray0",
"HX c Gray0",
"JX c Gray0",
"KX c Gray0",
"LX c Gray0",
"PX c Gray0",
"IX c Gray0",
"UX c Gray0",
/* pixels */
"i.i.i.i.i.i.i.i.i.i.i.i.i.i.i.i.",
"i.i.i.i.i.i.i.i.i.i.i.i.i.i.i.i.",
"i.i.i.M h ` S > i.i.i.i.i.i.i.i.",
"i.i.o x y.i.i.&.i.i.i.i.i.i.i.i.",
"n +.e.g i.b =.X.2 * ) i.i.i.i.i.",
"Q 1.o i.m N Y + p ; $.8.0.i.i.i.",
"] i.i.u.B + ( $ d O w.9 t.@ i.i.",
"@ i.0 >.j 3 F : W r 3.| % < i.i.",
"# i.c T v 1 5.O & [ %.K 4  .A i.",
"H 5 #.q ^ % s = k ;.y *.:.4.Z i.",
"i.6.~ $ I 7 9.C 7.r.2.-...f J w ",
"i.# l P u , @.X G X !   - t E _ ",
"i.a & ' U O..     . i.i./ D 6 R ",
"i.z 8 V . i.i.i.i.i.i.i.i.L X ,.",
"i.<.q.e i i.i.i.i.i.i.i.i.i.. } ",
"i.{ o.  i.i.i.i.i.i.i.i.i.i.i.i."
};
